<mxfile host="Electron" agent="Mozilla/5.0 (Windows NT 10.0; Win64; x64) AppleWebKit/537.36 (KHTML, like Gecko) draw.io/25.0.2 Chrome/128.0.6613.186 Electron/32.2.5 Safari/537.36" version="25.0.2">
  <diagram name="PÃ¡gina-1" id="XoVfdVzmXT0FCT3dWPdM">
    <mxGraphModel dx="2442" dy="955" grid="1" gridSize="10" guides="1" tooltips="1" connect="1" arrows="1" fold="1" page="1" pageScale="1" pageWidth="827" pageHeight="1169" background="none" math="0" shadow="1">
      <root>
        <mxCell id="0" />
        <mxCell id="1" parent="0" />
        <mxCell id="YE9JsAyy-DiZXmWN5Ccp-1" value="INICIO - mostrar_productos_por_existencia_menor" style="ellipse;whiteSpace=wrap;rounded=1;fillColor=#dae8fc;strokeColor=#6c8ebf;textShadow=1;strokeWidth=1;shadow=1;html=1;horizontal=1;fontSize=11;fontStyle=0;spacing=2;" parent="1" vertex="1">
          <mxGeometry x="280.4" y="10" width="239.6" height="80" as="geometry" />
        </mxCell>
        <mxCell id="YE9JsAyy-DiZXmWN5Ccp-2" value="n_productos = 0" style="rhombus;whiteSpace=wrap;rounded=1;fillColor=#f8cecc;strokeColor=#b85450;textShadow=1;strokeWidth=1;shadow=1;html=1;horizontal=1;fontSize=11;fontStyle=0;spacing=2;" parent="1" vertex="1">
          <mxGeometry x="330.2" y="110" width="140" height="100" as="geometry" />
        </mxCell>
        <mxCell id="YE9JsAyy-DiZXmWN5Ccp-3" value="" style="edgeStyle=orthogonalEdgeStyle;rounded=1;orthogonalLoop=1;jettySize=auto;entryX=0.5;entryY=0.036;entryDx=0;entryDy=0;entryPerimeter=0;fillColor=#dae8fc;strokeColor=#6c8ebf;textShadow=1;strokeWidth=1;shadow=1;html=1;horizontal=1;fontSize=11;fontStyle=0;spacing=2;" parent="1" target="YE9JsAyy-DiZXmWN5Ccp-2" edge="1">
          <mxGeometry relative="1" as="geometry">
            <mxPoint x="400" y="90" as="sourcePoint" />
          </mxGeometry>
        </mxCell>
        <mxCell id="YE9JsAyy-DiZXmWN5Ccp-4" value="" style="edgeStyle=orthogonalEdgeStyle;rounded=1;orthogonalLoop=1;jettySize=auto;fillColor=#dae8fc;strokeColor=#6c8ebf;textShadow=1;strokeWidth=1;shadow=1;html=1;horizontal=1;fontSize=11;fontStyle=0;spacing=2;exitX=1;exitY=0.5;exitDx=0;exitDy=0;entryX=0.508;entryY=0;entryDx=0;entryDy=0;entryPerimeter=0;" parent="1" target="YE9JsAyy-DiZXmWN5Ccp-9" edge="1">
          <mxGeometry x="0.3875" y="110" relative="1" as="geometry">
            <mxPoint x="610" y="210" as="targetPoint" />
            <mxPoint x="467.2" y="160" as="sourcePoint" />
            <Array as="points">
              <mxPoint x="640" y="160" />
            </Array>
            <mxPoint as="offset" />
          </mxGeometry>
        </mxCell>
        <mxCell id="YE9JsAyy-DiZXmWN5Ccp-5" value="NO" style="edgeLabel;html=1;align=center;verticalAlign=middle;resizable=0;points=[];" parent="YE9JsAyy-DiZXmWN5Ccp-4" vertex="1" connectable="0">
          <mxGeometry x="-0.1035" y="-2" relative="1" as="geometry">
            <mxPoint as="offset" />
          </mxGeometry>
        </mxCell>
        <mxCell id="YE9JsAyy-DiZXmWN5Ccp-6" value="" style="edgeStyle=orthogonalEdgeStyle;rounded=1;orthogonalLoop=1;jettySize=auto;fillColor=#dae8fc;strokeColor=#6c8ebf;textShadow=1;strokeWidth=1;shadow=1;html=1;horizontal=1;fontSize=11;fontStyle=0;spacing=2;exitX=0.021;exitY=0.505;exitDx=0;exitDy=0;exitPerimeter=0;" parent="1" edge="1">
          <mxGeometry x="0.3875" y="110" relative="1" as="geometry">
            <mxPoint x="157.4" y="220" as="targetPoint" />
            <mxPoint x="334.13999999999993" y="160.5" as="sourcePoint" />
            <mxPoint as="offset" />
            <Array as="points">
              <mxPoint x="157.4" y="160" />
              <mxPoint x="157.4" y="220" />
            </Array>
          </mxGeometry>
        </mxCell>
        <mxCell id="YE9JsAyy-DiZXmWN5Ccp-7" value="SI" style="edgeLabel;html=1;align=center;verticalAlign=middle;resizable=0;points=[];" parent="YE9JsAyy-DiZXmWN5Ccp-6" vertex="1" connectable="0">
          <mxGeometry x="-0.2624" relative="1" as="geometry">
            <mxPoint as="offset" />
          </mxGeometry>
        </mxCell>
        <mxCell id="YE9JsAyy-DiZXmWN5Ccp-9" value="Escribir(&quot;** Mostrar_productos_por_existencia_menor **&quot;);" style="rounded=1;whiteSpace=wrap;fillColor=#fff2cc;strokeColor=#d6b656;textShadow=1;strokeWidth=1;shadow=1;html=1;horizontal=1;fontSize=11;fontStyle=0;spacing=2;" parent="1" vertex="1">
          <mxGeometry x="480" y="220" width="318.8" height="40" as="geometry" />
        </mxCell>
        <mxCell id="YE9JsAyy-DiZXmWN5Ccp-11" value="" style="edgeStyle=orthogonalEdgeStyle;rounded=1;orthogonalLoop=1;jettySize=auto;fillColor=#dae8fc;strokeColor=#6c8ebf;textShadow=1;strokeWidth=1;shadow=1;html=1;horizontal=1;fontSize=11;fontStyle=0;spacing=2;exitX=0.5;exitY=1;exitDx=0;exitDy=0;" parent="1" edge="1">
          <mxGeometry relative="1" as="geometry">
            <mxPoint x="639.69" y="330" as="sourcePoint" />
            <mxPoint x="639.9000000000001" y="360" as="targetPoint" />
          </mxGeometry>
        </mxCell>
        <mxCell id="YE9JsAyy-DiZXmWN5Ccp-12" value="" style="edgeStyle=orthogonalEdgeStyle;rounded=1;orthogonalLoop=1;jettySize=auto;fillColor=#dae8fc;strokeColor=#6c8ebf;textShadow=1;strokeWidth=1;shadow=1;html=1;horizontal=1;fontSize=11;fontStyle=0;spacing=2;exitX=0.5;exitY=1;exitDx=0;exitDy=0;" parent="1" edge="1">
          <mxGeometry relative="1" as="geometry">
            <mxPoint x="639.7000000000002" y="260" as="sourcePoint" />
            <mxPoint x="639.91" y="290" as="targetPoint" />
          </mxGeometry>
        </mxCell>
        <mxCell id="YE9JsAyy-DiZXmWN5Ccp-13" value="Escribir(&quot;Ingrese el numero de existencias: &quot;);" style="rounded=1;whiteSpace=wrap;fillColor=#fff2cc;strokeColor=#d6b656;textShadow=1;strokeWidth=1;shadow=1;html=1;horizontal=1;fontSize=11;fontStyle=0;spacing=2;" parent="1" vertex="1">
          <mxGeometry x="480" y="360" width="320" height="40" as="geometry" />
        </mxCell>
        <mxCell id="YE9JsAyy-DiZXmWN5Ccp-14" style="edgeStyle=orthogonalEdgeStyle;rounded=0;orthogonalLoop=1;jettySize=auto;html=1;fillColor=#dae8fc;strokeColor=#6c8ebf;" parent="1" edge="1">
          <mxGeometry relative="1" as="geometry">
            <mxPoint x="640" y="1200" as="targetPoint" />
            <mxPoint x="158.99999999999983" y="260" as="sourcePoint" />
            <Array as="points">
              <mxPoint x="159" y="1200" />
            </Array>
          </mxGeometry>
        </mxCell>
        <mxCell id="YE9JsAyy-DiZXmWN5Ccp-15" value="Escribir(&quot;El inventario esta vacio.&quot;);" style="rounded=1;whiteSpace=wrap;fillColor=#fff2cc;strokeColor=#d6b656;textShadow=1;strokeWidth=1;shadow=1;html=1;horizontal=1;fontSize=11;fontStyle=0;spacing=2;" parent="1" vertex="1">
          <mxGeometry x="-4" y="220" width="334.4" height="40" as="geometry" />
        </mxCell>
        <mxCell id="YE9JsAyy-DiZXmWN5Ccp-18" value="Leer(cantidad);" style="rounded=1;whiteSpace=wrap;fillColor=#fff2cc;strokeColor=#d6b656;textShadow=1;strokeWidth=1;shadow=1;html=1;horizontal=1;fontSize=11;fontStyle=0;spacing=2;" parent="1" vertex="1">
          <mxGeometry x="480" y="430" width="317.6" height="40" as="geometry" />
        </mxCell>
        <mxCell id="YE9JsAyy-DiZXmWN5Ccp-20" value="" style="edgeStyle=orthogonalEdgeStyle;rounded=1;orthogonalLoop=1;jettySize=auto;fillColor=#dae8fc;strokeColor=#6c8ebf;textShadow=1;strokeWidth=1;shadow=1;html=1;horizontal=1;fontSize=11;fontStyle=0;spacing=2;exitX=0.5;exitY=1;exitDx=0;exitDy=0;" parent="1" edge="1">
          <mxGeometry relative="1" as="geometry">
            <mxPoint x="638.7000000000002" y="400" as="sourcePoint" />
            <mxPoint x="638.91" y="430" as="targetPoint" />
          </mxGeometry>
        </mxCell>
        <mxCell id="YE9JsAyy-DiZXmWN5Ccp-23" value="" style="edgeStyle=orthogonalEdgeStyle;rounded=1;orthogonalLoop=1;jettySize=auto;fillColor=#dae8fc;strokeColor=#6c8ebf;textShadow=1;strokeWidth=1;shadow=1;html=1;horizontal=1;fontSize=11;fontStyle=0;spacing=2;exitX=0.5;exitY=1;exitDx=0;exitDy=0;" parent="1" edge="1">
          <mxGeometry relative="1" as="geometry">
            <mxPoint x="639.21" y="470" as="sourcePoint" />
            <mxPoint x="639.4200000000001" y="500" as="targetPoint" />
          </mxGeometry>
        </mxCell>
        <mxCell id="YE9JsAyy-DiZXmWN5Ccp-44" value="" style="edgeStyle=orthogonalEdgeStyle;rounded=1;orthogonalLoop=1;jettySize=auto;fillColor=#dae8fc;strokeColor=#6c8ebf;textShadow=1;strokeWidth=1;shadow=1;html=1;horizontal=1;fontSize=11;fontStyle=0;spacing=2;" parent="1" edge="1">
          <mxGeometry relative="1" as="geometry">
            <mxPoint x="640" y="870" as="sourcePoint" />
            <mxPoint x="640" y="490" as="targetPoint" />
            <Array as="points">
              <mxPoint x="640" y="920" />
              <mxPoint x="440" y="920" />
              <mxPoint x="440" y="490" />
            </Array>
          </mxGeometry>
        </mxCell>
        <mxCell id="YE9JsAyy-DiZXmWN5Ccp-45" value="" style="edgeStyle=orthogonalEdgeStyle;rounded=1;orthogonalLoop=1;jettySize=auto;fillColor=#dae8fc;strokeColor=#6c8ebf;textShadow=1;strokeWidth=1;shadow=1;html=1;horizontal=1;fontSize=11;fontStyle=0;spacing=2;" parent="1" edge="1">
          <mxGeometry relative="1" as="geometry">
            <mxPoint x="704.6" y="549" as="sourcePoint" />
            <mxPoint x="640" y="970" as="targetPoint" />
            <Array as="points">
              <mxPoint x="880" y="549" />
              <mxPoint x="880" y="950" />
              <mxPoint x="640" y="950" />
            </Array>
          </mxGeometry>
        </mxCell>
        <mxCell id="LC-HgGUPtYys0bHaGzY3-17" value="NO" style="edgeLabel;html=1;align=center;verticalAlign=middle;resizable=0;points=[];" vertex="1" connectable="0" parent="YE9JsAyy-DiZXmWN5Ccp-45">
          <mxGeometry x="-0.9007" y="-1" relative="1" as="geometry">
            <mxPoint as="offset" />
          </mxGeometry>
        </mxCell>
        <mxCell id="YE9JsAyy-DiZXmWN5Ccp-10" value="existen_productos_existencia_menor = FALSO;" style="rounded=1;whiteSpace=wrap;fillColor=#fff2cc;strokeColor=#d6b656;textShadow=1;strokeWidth=1;shadow=1;html=1;horizontal=1;fontSize=11;fontStyle=0;spacing=2;" parent="1" vertex="1">
          <mxGeometry x="537.6" y="290" width="202.4" height="40" as="geometry" />
        </mxCell>
        <mxCell id="LC-HgGUPtYys0bHaGzY3-1" value="i &amp;lt; n_productos" style="rhombus;whiteSpace=wrap;rounded=1;fillColor=#f8cecc;strokeColor=#b85450;textShadow=1;strokeWidth=1;shadow=1;html=1;horizontal=1;fontSize=11;fontStyle=0;spacing=2;" vertex="1" parent="1">
          <mxGeometry x="569.8" y="498" width="140" height="100" as="geometry" />
        </mxCell>
        <mxCell id="LC-HgGUPtYys0bHaGzY3-3" value="" style="edgeStyle=orthogonalEdgeStyle;rounded=1;orthogonalLoop=1;jettySize=auto;fillColor=#dae8fc;strokeColor=#6c8ebf;textShadow=1;strokeWidth=1;shadow=1;html=1;horizontal=1;fontSize=11;fontStyle=0;spacing=2;exitX=0.5;exitY=1;exitDx=0;exitDy=0;" edge="1" parent="1">
          <mxGeometry relative="1" as="geometry">
            <mxPoint x="639.6600000000001" y="595" as="sourcePoint" />
            <mxPoint x="639.8700000000001" y="625" as="targetPoint" />
          </mxGeometry>
        </mxCell>
        <mxCell id="LC-HgGUPtYys0bHaGzY3-4" value="SI" style="edgeLabel;html=1;align=center;verticalAlign=middle;resizable=0;points=[];" vertex="1" connectable="0" parent="LC-HgGUPtYys0bHaGzY3-3">
          <mxGeometry x="-0.0319" y="-1" relative="1" as="geometry">
            <mxPoint y="-3" as="offset" />
          </mxGeometry>
        </mxCell>
        <mxCell id="LC-HgGUPtYys0bHaGzY3-15" style="edgeStyle=orthogonalEdgeStyle;rounded=0;orthogonalLoop=1;jettySize=auto;html=1;fillColor=#dae8fc;strokeColor=#6c8ebf;exitX=1;exitY=0.5;exitDx=0;exitDy=0;" edge="1" parent="1" source="LC-HgGUPtYys0bHaGzY3-6">
          <mxGeometry relative="1" as="geometry">
            <mxPoint x="640" y="910" as="targetPoint" />
            <Array as="points">
              <mxPoint x="840" y="673" />
              <mxPoint x="840" y="910" />
            </Array>
          </mxGeometry>
        </mxCell>
        <mxCell id="LC-HgGUPtYys0bHaGzY3-16" value="NO" style="edgeLabel;html=1;align=center;verticalAlign=middle;resizable=0;points=[];" vertex="1" connectable="0" parent="LC-HgGUPtYys0bHaGzY3-15">
          <mxGeometry x="-0.7988" y="-3" relative="1" as="geometry">
            <mxPoint as="offset" />
          </mxGeometry>
        </mxCell>
        <mxCell id="LC-HgGUPtYys0bHaGzY3-6" value="galleta[i].cantidad &amp;lt; cantidad" style="rhombus;whiteSpace=wrap;rounded=1;fillColor=#f8cecc;strokeColor=#b85450;textShadow=1;strokeWidth=1;shadow=1;html=1;horizontal=1;fontSize=11;fontStyle=0;spacing=2;" vertex="1" parent="1">
          <mxGeometry x="559.6" y="623" width="160.4" height="100" as="geometry" />
        </mxCell>
        <mxCell id="LC-HgGUPtYys0bHaGzY3-7" value="" style="edgeStyle=orthogonalEdgeStyle;rounded=1;orthogonalLoop=1;jettySize=auto;fillColor=#dae8fc;strokeColor=#6c8ebf;textShadow=1;strokeWidth=1;shadow=1;html=1;horizontal=1;fontSize=11;fontStyle=0;spacing=2;exitX=0.5;exitY=1;exitDx=0;exitDy=0;" edge="1" parent="1">
          <mxGeometry relative="1" as="geometry">
            <mxPoint x="639.5600000000001" y="723" as="sourcePoint" />
            <mxPoint x="639.7700000000001" y="753" as="targetPoint" />
          </mxGeometry>
        </mxCell>
        <mxCell id="LC-HgGUPtYys0bHaGzY3-8" value="SI" style="edgeLabel;html=1;align=center;verticalAlign=middle;resizable=0;points=[];" vertex="1" connectable="0" parent="LC-HgGUPtYys0bHaGzY3-7">
          <mxGeometry x="-0.0319" y="-1" relative="1" as="geometry">
            <mxPoint y="-3" as="offset" />
          </mxGeometry>
        </mxCell>
        <mxCell id="LC-HgGUPtYys0bHaGzY3-9" value="existen_productos_existencia_menor = VERDADERO" style="rounded=1;whiteSpace=wrap;fillColor=#fff2cc;strokeColor=#d6b656;textShadow=1;strokeWidth=1;shadow=1;html=1;horizontal=1;fontSize=11;fontStyle=0;spacing=2;" vertex="1" parent="1">
          <mxGeometry x="480" y="754" width="317.2" height="40" as="geometry" />
        </mxCell>
        <mxCell id="LC-HgGUPtYys0bHaGzY3-10" value="" style="edgeStyle=orthogonalEdgeStyle;rounded=1;orthogonalLoop=1;jettySize=auto;fillColor=#dae8fc;strokeColor=#6c8ebf;textShadow=1;strokeWidth=1;shadow=1;html=1;horizontal=1;fontSize=11;fontStyle=0;spacing=2;exitX=0.5;exitY=1;exitDx=0;exitDy=0;" edge="1" parent="1">
          <mxGeometry relative="1" as="geometry">
            <mxPoint x="639.6300000000001" y="794" as="sourcePoint" />
            <mxPoint x="639.8400000000001" y="824" as="targetPoint" />
          </mxGeometry>
        </mxCell>
        <mxCell id="LC-HgGUPtYys0bHaGzY3-12" value="mostrar_producto(i, galleta);" style="rounded=1;whiteSpace=wrap;fillColor=#fff2cc;strokeColor=#d6b656;textShadow=1;strokeWidth=1;shadow=1;html=1;horizontal=1;fontSize=11;fontStyle=0;spacing=2;" vertex="1" parent="1">
          <mxGeometry x="480" y="826" width="320" height="40" as="geometry" />
        </mxCell>
        <mxCell id="LC-HgGUPtYys0bHaGzY3-18" style="edgeStyle=orthogonalEdgeStyle;rounded=0;orthogonalLoop=1;jettySize=auto;html=1;fillColor=#dae8fc;strokeColor=#6c8ebf;exitX=1;exitY=0.5;exitDx=0;exitDy=0;" edge="1" parent="1">
          <mxGeometry relative="1" as="geometry">
            <mxPoint x="640" y="1200" as="targetPoint" />
            <Array as="points">
              <mxPoint x="840" y="1031" />
              <mxPoint x="840" y="1200" />
            </Array>
            <mxPoint x="748" y="1031" as="sourcePoint" />
          </mxGeometry>
        </mxCell>
        <mxCell id="LC-HgGUPtYys0bHaGzY3-19" value="NO" style="edgeLabel;html=1;align=center;verticalAlign=middle;resizable=0;points=[];" vertex="1" connectable="0" parent="LC-HgGUPtYys0bHaGzY3-18">
          <mxGeometry x="-0.7988" y="-3" relative="1" as="geometry">
            <mxPoint as="offset" />
          </mxGeometry>
        </mxCell>
        <mxCell id="LC-HgGUPtYys0bHaGzY3-20" value="existen_productos_existencia_menor = FALSO" style="rhombus;whiteSpace=wrap;rounded=1;fillColor=#f8cecc;strokeColor=#b85450;textShadow=1;strokeWidth=1;shadow=1;html=1;horizontal=1;fontSize=11;fontStyle=0;spacing=2;" vertex="1" parent="1">
          <mxGeometry x="530" y="970" width="220" height="120" as="geometry" />
        </mxCell>
        <mxCell id="LC-HgGUPtYys0bHaGzY3-21" value="" style="edgeStyle=orthogonalEdgeStyle;rounded=1;orthogonalLoop=1;jettySize=auto;fillColor=#dae8fc;strokeColor=#6c8ebf;textShadow=1;strokeWidth=1;shadow=1;html=1;horizontal=1;fontSize=11;fontStyle=0;spacing=2;exitX=0.5;exitY=1;exitDx=0;exitDy=0;" edge="1" parent="1">
          <mxGeometry relative="1" as="geometry">
            <mxPoint x="638.96" y="1090" as="sourcePoint" />
            <mxPoint x="639.1700000000001" y="1120" as="targetPoint" />
          </mxGeometry>
        </mxCell>
        <mxCell id="LC-HgGUPtYys0bHaGzY3-22" value="SI" style="edgeLabel;html=1;align=center;verticalAlign=middle;resizable=0;points=[];" vertex="1" connectable="0" parent="LC-HgGUPtYys0bHaGzY3-21">
          <mxGeometry x="-0.0319" y="-1" relative="1" as="geometry">
            <mxPoint y="-3" as="offset" />
          </mxGeometry>
        </mxCell>
        <mxCell id="LC-HgGUPtYys0bHaGzY3-23" value="Escribir(&quot;No se encontraron productos con existencia menor a la ingresada&quot;);" style="rounded=1;whiteSpace=wrap;fillColor=#fff2cc;strokeColor=#d6b656;textShadow=1;strokeWidth=1;shadow=1;html=1;horizontal=1;fontSize=11;fontStyle=0;spacing=2;" vertex="1" parent="1">
          <mxGeometry x="479.4" y="1121" width="317.2" height="40" as="geometry" />
        </mxCell>
        <mxCell id="LC-HgGUPtYys0bHaGzY3-24" value="" style="edgeStyle=orthogonalEdgeStyle;rounded=1;orthogonalLoop=1;jettySize=auto;fillColor=#dae8fc;strokeColor=#6c8ebf;textShadow=1;strokeWidth=1;shadow=1;html=1;horizontal=1;fontSize=11;fontStyle=0;spacing=2;exitX=0.5;exitY=1;exitDx=0;exitDy=0;entryX=0.5;entryY=0;entryDx=0;entryDy=0;" edge="1" parent="1">
          <mxGeometry relative="1" as="geometry">
            <mxPoint x="639.0300000000001" y="1161" as="sourcePoint" />
            <mxPoint x="640" y="1210" as="targetPoint" />
            <Array as="points">
              <mxPoint x="639" y="1176" />
              <mxPoint x="640" y="1176" />
            </Array>
          </mxGeometry>
        </mxCell>
        <mxCell id="LC-HgGUPtYys0bHaGzY3-26" value="FIN - mostrar_productos_por_existencia_menor" style="ellipse;whiteSpace=wrap;rounded=1;fillColor=#dae8fc;strokeColor=#6c8ebf;textShadow=1;strokeWidth=1;shadow=1;html=1;horizontal=1;fontSize=11;fontStyle=0;spacing=2;" vertex="1" parent="1">
          <mxGeometry x="520.2" y="1210" width="239.6" height="80" as="geometry" />
        </mxCell>
      </root>
    </mxGraphModel>
  </diagram>
</mxfile>
